<?xml version="1.0" ?><!DOCTYPE svg  PUBLIC '-//W3C//DTD SVG 1.1//EN'  'http://www.w3.org/Graphics/SVG/1.1/DTD/svg11.dtd'><svg enable-background="new 0 0 512 512" height="512px" id="Layer_1" version="1.1" viewBox="0 0 512 512" width="512px" xml:space="preserve" xmlns="http://www.w3.org/2000/svg" xmlns:xlink="http://www.w3.org/1999/xlink"><rect fill="#F2EA1F" height="141.12" stroke="#231F20" stroke-miterlimit="10" stroke-width="7" width="242.88" x="137.561" y="109.453"/><rect fill="#B0D9AD" height="60.48" stroke="#231F20" stroke-miterlimit="10" stroke-width="5" width="26.88" x="240.761" y="250.573"/><rect fill="#F26768" height="21.6" stroke="#231F20" stroke-miterlimit="10" stroke-width="3" width="24" x="137.561" y="125.773"/><rect fill="#B0D9AD" height="21.6" stroke="#231F20" stroke-miterlimit="10" stroke-width="3" width="24" x="137.561" y="169.213"/><path d="M332.531,335.053h-156.66  c-2.063,0-3.75-1.688-3.75-3.75v-16.5c0-2.063,1.687-3.75,3.75-3.75h156.66c2.063,0,3.75,1.688,3.75,3.75v16.5  C336.281,333.366,334.593,335.053,332.531,335.053z" fill="#D01E4C" stroke="#231F20" stroke-miterlimit="10" stroke-width="5"/><rect fill="#D01E4C" height="98.88" stroke="#231F20" stroke-miterlimit="10" stroke-width="5" width="60.48" x="49.83" y="224.173"/><rect fill="#D01E4C" height="98.88" stroke="#231F20" stroke-miterlimit="10" stroke-width="5" width="60.48" x="401.561" y="224.173"/><ellipse cx="79.961" cy="273.613" fill="#908FB2" rx="21.12" ry="21.48" stroke="#231F20" stroke-miterlimit="10" stroke-width="3"/><line fill="none" stroke="#231F20" stroke-miterlimit="10" x1="70.647" x2="101.081" y1="254.357" y2="273.613"/><line fill="none" stroke="#231F20" stroke-miterlimit="10" x1="58.841" x2="85.864" y1="273.613" y2="294.24"/><line fill="none" stroke="#231F20" stroke-miterlimit="10" x1="61.654" x2="98.487" y1="262.933" y2="283.927"/><ellipse cx="431.801" cy="268.813" fill="#908FB2" rx="21.12" ry="21.48" stroke="#231F20" stroke-miterlimit="10" stroke-width="3"/><line fill="none" stroke="#231F20" stroke-miterlimit="10" x1="420.686" x2="452.921" y1="250.573" y2="268.813"/><line fill="none" stroke="#231F20" stroke-miterlimit="10" x1="412.7" x2="449.32" y1="259.693" y2="280.813"/><line fill="none" stroke="#231F20" stroke-miterlimit="10" x1="410.681" x2="436.803" y1="273.613" y2="289.662"/><path d="M352.889,355.309  c0-8.271,6.877-27.264,15.36-27.264s15.36,18.993,15.36,27.264c0,8.271-6.877,14.976-15.36,14.976S352.889,363.58,352.889,355.309z" fill="#95CE8D" stroke="#231F20" stroke-miterlimit="10" stroke-width="3"/><path d="M368.249,370.285  c0,13.584,10.477,24.576,23.424,24.576" fill="none" stroke="#231F20" stroke-miterlimit="10" stroke-width="3"/><line fill="none" stroke="#231F20" stroke-miterlimit="10" x1="368.249" x2="368.249" y1="328.045" y2="340.333"/><path d="M338.834,403.963  c0,4.047-6.263,7.327-13.988,7.327H182.529c-7.726,0-13.988-3.281-13.988-7.327v-33.588c0-4.047,6.263-7.327,13.988-7.327h142.317  c7.726,0,13.988,3.281,13.988,7.327V403.963z" fill="#D01E4C" stroke="#231F20" stroke-miterlimit="10" stroke-width="5"/><rect fill="#95CE8D" height="4.787" stroke="#231F20" stroke-miterlimit="10" width="49.893" x="203.794" y="401.503"/><rect fill="#95CE8D" height="33.547" stroke="#231F20" stroke-miterlimit="10" width="24.333" x="308.886" y="370.395"/><rect fill="#95CE8D" height="26.507" stroke="#231F20" stroke-miterlimit="10" stroke-width="3" width="107" x="175.886" y="370.783"/><path d="M292.886,367.957" fill="#FFFFFF" stroke="#231F20" stroke-miterlimit="10"/><polygon fill="#FFFFFF" points="26.333,224.173 26.333,224.173 25.667,224.173   25.667,224.173 25.667,224.173 25.667,224.173 26.333,224.173 26.333,224.173 " stroke="#231F20" stroke-miterlimit="10"/><polygon fill="#FFFFFF" points="19.333,220 19.333,220 18.667,220 18.667,220 18.667,220   18.667,220 19.333,220 19.333,220 " stroke="#231F20" stroke-miterlimit="10"/><path d="M297.932,406.281c0,0.283-0.229,0.512-0.512,0.512h-5.734  c-0.283,0-0.512-0.229-0.512-0.512v-4.769c0-0.283,0.229-0.512,0.512-0.512h5.734c0.283,0,0.512,0.229,0.512,0.512V406.281z" fill="#95CE8D" stroke="#231F20" stroke-miterlimit="10"/><path d="M297.932,398.778c0,0.283-0.229,0.512-0.512,0.512h-5.734  c-0.283,0-0.512-0.229-0.512-0.512v-4.769c0-0.283,0.229-0.512,0.512-0.512h5.734c0.283,0,0.512,0.229,0.512,0.512V398.778z" fill="#95CE8D" stroke="#231F20" stroke-miterlimit="10"/><path d="M289.645,406.281c0,0.283-0.229,0.512-0.512,0.512h-5.734  c-0.283,0-0.512-0.229-0.512-0.512v-4.769c0-0.283,0.229-0.512,0.512-0.512h5.734c0.283,0,0.512,0.229,0.512,0.512V406.281z" fill="#95CE8D" stroke="#231F20" stroke-miterlimit="10"/><path d="M306.22,406.281c0,0.283-0.229,0.512-0.512,0.512h-5.734  c-0.283,0-0.512-0.229-0.512-0.512v-4.769c0-0.283,0.229-0.512,0.512-0.512h5.734c0.283,0,0.512,0.229,0.512,0.512V406.281z" fill="#95CE8D" stroke="#231F20" stroke-miterlimit="10"/></svg>