<?xml version="1.0" ?><!DOCTYPE svg  PUBLIC '-//W3C//DTD SVG 1.1//EN'  'http://www.w3.org/Graphics/SVG/1.1/DTD/svg11.dtd'><svg enable-background="new 0 0 512 512" height="512px" id="Layer_1" version="1.1" viewBox="0 0 512 512" width="512px" xml:space="preserve" xmlns="http://www.w3.org/2000/svg" xmlns:xlink="http://www.w3.org/1999/xlink"><path d="M452.944,439.921  c0,13.233-10.793,23.961-24.108,23.961h-46.419c-13.314,0-24.108-10.728-24.108-23.961V73.557c0-13.233,10.793-23.961,24.108-23.961  h46.419c13.314,0,24.108,10.728,24.108,23.961V439.921z" fill="#F0E912" stroke="#000000" stroke-miterlimit="10" stroke-width="6"/><path d="M431.697,443.841  c0,13.482-10.793,24.412-24.108,24.412H361.17c-13.314,0-24.108-10.929-24.108-24.412V70.581c0-13.482,10.793-24.412,24.108-24.412  h46.419c13.314,0,24.108,10.929,24.108,24.412V443.841z" fill="#73D0EE" stroke="#000000" stroke-miterlimit="10" stroke-width="6"/><line fill="none" x1="302.594" x2="315.687" y1="385.849" y2="402.753"/><rect fill="#9C499C" height="41.615" stroke="#000000" stroke-miterlimit="10" stroke-width="4" width="39.752" x="433.068" y="59.534"/><rect fill="#21B24B" height="41.615" stroke="#000000" stroke-miterlimit="10" stroke-width="4" width="54.037" x="388.969" y="77.236"/><path d="M405.627,420.876c0,27.614-22.386,50-50,50  H156.248c-27.614,0-50-22.386-50-50V93.546c0-27.614,22.386-50,50-50h199.379c27.614,0,50,22.386,50,50V420.876z" fill="#D1E9D1" stroke="#000000" stroke-miterlimit="10" stroke-width="6"/><rect fill="#E53325" height="342.261" width="34.468" x="302.594" y="38.619"/></svg>